Coordinates
version=1
nRows=14
nColumns=36
inDegrees=yes

Units are S.I. units (second, meters, Newtons, ...)
If the header above contains a line with 'inDegrees', this indicates whether rotational values are in degrees (yes) or radians (no).

endheader
time	pelvis_tilt	pelvis_list	pelvis_rotation	pelvis_tx	pelvis_ty	pelvis_tz	hip_flexion_r	hip_adduction_r	hip_rotation_r	knee_angle_r	knee_angle_r_beta	ankle_angle_r	subtalar_angle_r	mtp_angle_r	hip_flexion_l	hip_adduction_l	hip_rotation_l	knee_angle_l	knee_angle_l_beta	ankle_angle_l	subtalar_angle_l	mtp_angle_l	lumbar_extension	lumbar_bending	lumbar_rotation	arm_flex_r	arm_add_r	arm_rot_r	elbow_flex_r	pro_sup_r	arm_flex_l	arm_add_l	arm_rot_l	elbow_flex_l	pro_sup_l
      2.23333330	    -20.05978311	     -4.03299968	      6.09580606	      1.33337599	      0.79792142	     -0.11158396	     57.95873180	    -15.11391779	     -7.09003146	     60.03886044	      1.04787579	     22.41806605	      0.93284092	     -7.49999987	     55.42707576	    -18.02983989	     -8.73761769	     60.71717770	      1.05971466	     31.47276123	      5.91849999	     -7.49999987	    -20.11638146	      1.35307099	      5.41118606	     72.37413105	      1.42084006	     75.39152585	    130.35479306	     86.15844687	     78.75558672	      4.21312555	     66.66040821	    118.70298925	    100.36105078
      2.25000000	    -18.98254416	     -3.60941990	      5.73192082	      1.33847088	      0.80334918	     -0.10780050	     54.89897222	    -14.71222366	     -7.24310982	     57.23112639	      0.99887159	     21.73011538	      1.66900327	     -7.49999987	     51.86569613	    -17.83465870	     -9.73644887	     57.70646698	      1.00716785	     30.88358383	      6.85075734	     -7.49999987	    -19.50065014	      0.83543820	      4.86626209	     72.26719307	      3.04338737	     72.83133416	    130.77936141	     94.70429804	     78.58548421	      3.75655724	     64.98101471	    119.82852650	    103.24716302
      2.26666670	    -17.85754668	     -3.14576000	      5.36876158	      1.34370609	      0.81164133	     -0.11080144	     51.85919228	    -14.45377796	     -7.42299644	     54.42376024	      0.94987381	     21.03108505	      2.30327222	     -7.49999987	     48.27972197	    -17.52944133	    -10.76660914	     54.68160787	      0.95437410	     30.14574620	      7.58516820	     -7.49999987	    -18.91935681	      0.40772262	      4.53779216	     71.67767414	      3.24654424	     71.58621673	    130.93976648	     93.84120975	     77.82182483	      3.40901597	     64.31251581	    120.04881490	    101.92349803
      2.28333330	    -16.99422657	     -2.71327299	      5.01349615	      1.34409296	      0.82361784	     -0.11034678	     49.26052305	    -14.23864992	     -7.56097509	     51.72327834	      0.90274151	     20.22857003	      2.80636193	     -7.49999987	     45.15371726	    -17.12180659	    -11.56979366	     51.72145906	      0.90270975	     29.26755416	      8.02722885	     -7.49999987	    -18.28581135	      0.20278808	      4.50280909	     71.62212922	      3.69046569	     70.46391121	    130.96521820	     93.99696744	     77.38404494	      2.98343917	     63.81611799	    121.18430983	    101.88600861
      2.30000000	    -15.52549925	     -2.32110865	      4.60380749	      1.35015023	      0.84031940	     -0.10769085	     45.73008795	    -13.88972853	     -7.89785510	     48.52013369	      0.84683609	     19.20488777	      3.25866264	     -7.49999987	     41.15040221	    -16.73629362	    -12.46181876	     48.32561439	      0.84344108	     28.17489088	      8.38627890	     -7.49999987	    -18.68245407	      0.01063632	      4.71569773	     71.28398044	      3.78540973	     69.72957980	    129.89146830	     93.12656323	     76.19460997	      2.11080200	     64.09092788	    121.78873267	    100.68091376
      2.31666670	    -13.97446894	     -1.98974622	      4.15732874	      1.35519772	      0.85363721	     -0.10968926	     42.06233050	    -13.47008184	     -8.12393517	     45.17039649	      0.78837214	     17.94250218	      3.45316999	     -7.49999987	     36.98557757	    -16.25892655	    -13.16376675	     44.74763284	      0.78099353	     26.84679522	      8.49671828	     -7.49999987	    -18.94266784	     -0.10864744	      4.77370367	     70.70502454	      4.14000994	     68.71222898	    129.62333832	     93.64367758	     75.11906083	      1.79512238	     63.00044702	    122.13856498	    100.97404307
      2.33333330	    -13.13050526	     -1.80809017	      3.80104995	      1.35616103	      0.85991080	     -0.11009407	     39.48075568	    -13.07687832	     -8.17652614	     42.35508214	      0.73923564	     16.76861695	      3.65902002	     -7.49999987	     34.13144778	    -15.82344679	    -13.49283037	     41.85060188	      0.73043080	     25.81776910	      8.55382806	     -7.49999987	    -18.30023133	     -0.09148578	      4.61140330	     70.70557644	      4.57416041	     67.33863823	    129.59151795	     93.85874838	     74.54800740	      1.96374090	     62.16503379	    122.27690063	    101.07329429
      2.35000000	    -10.36464871	     -1.51176803	      3.15609607	      1.37489457	      0.87761831	     -0.11612389	     33.79002955	    -12.58733819	     -8.67718847	     37.85381137	      0.66067364	     15.54814746	      4.26847884	     -7.49999987	     27.77403601	    -15.15694175	    -14.37079443	     37.05742475	      0.64677407	     24.31479157	      8.85251218	     -7.49999987	    -19.69465704	      0.04132313	      5.00144998	     69.97205773	      4.60378522	     67.35408890	    130.03196354	     94.84067548	     72.42890587	      2.51777463	     61.41313783	    122.37040559	    101.58590685
      2.36666670	     -8.37737867	     -1.50244872	      2.76423295	      1.37576517	      0.89530389	     -0.11071545	     28.97393385	    -11.79821581	     -8.89153797	     33.40667070	      0.58305640	     13.85682482	      4.44190044	     -7.49999987	     22.64471129	    -14.59819634	    -14.73448577	     32.26770044	      0.56317761	     22.29372289	      9.09620490	     -7.49999987	    -20.36357980	      0.17882222	      5.38541813	     68.31525461	      4.29219738	     66.61198128	    128.84622888	     95.84450436	     70.48203484	      2.80181681	     62.21281278	    122.49408400	    102.11778472
      2.38333330	     -7.21627484	     -1.57861502	      2.39985085	      1.37547314	      0.89865151	     -0.10979205	     25.67295565	    -11.00966991	     -8.65990814	     29.85135013	      0.52100435	     12.30887289	      4.16394634	     -7.49999987	     19.14568463	    -14.17619687	    -14.68562592	     28.60668439	      0.49928083	     20.94399801	      9.10537029	     -7.49999987	    -20.17356943	      0.37651481	      5.36169318	     67.85769251	      4.39154803	     65.13475114	    128.72764739	     96.12893490	     69.51575781	      2.89870277	     61.30903150	    122.80196098	    102.23276460
      2.40000000	     -5.66681441	     -1.73654560	      2.17600518	      1.38517077	      0.90623789	     -0.11129199	     21.72421231	    -10.16780303	     -8.51643251	     25.93277259	      0.45261227	     10.86752356	      3.82587736	     -7.49999987	     15.08606790	    -13.74423405	    -14.59158069	     24.71558429	      0.43136832	     19.53166911	      8.90016567	     -7.49999987	    -20.30759445	      0.70369182	      5.14106375	     66.75199013	      4.45333492	     63.98313318	    128.08123318	     96.32836127	     68.22243898	      2.64152322	     60.46369780	    122.96797742	    102.33261543
      2.41666670	     -4.16299678	     -1.88467579	      2.03195394	      1.38926574	      0.91297875	     -0.11413427	     17.98489135	     -9.46099365	     -8.25683557	     22.29446397	      0.38911180	      9.55371346	      3.60251168	     -7.49999987	     11.18338921	    -13.29975227	    -14.38085695	     21.05431152	      0.36746706	     18.34486076	      8.79123274	     -7.49999987	    -20.14217000	      1.10918551	      4.56145892	     65.58360068	      4.39839450	     63.12852792	    127.60056518	     94.39050206	     67.34797215	      2.65186726	     59.90842978	    122.82586234	     98.50023844
      2.43333330	     -3.39139908	     -2.03381790	      1.97781901	      1.39416793	      0.91383228	     -0.11258615	     15.50585979	     -8.82510432	     -7.77063745	     19.47503838	      0.33990354	      8.33815648	      2.69057609	     -7.49999987	      8.64437945	    -12.99053046	    -13.84626191	     18.36706405	      0.32056574	     17.49449280	      8.40699341	     -7.49999987	    -19.27700573	      1.40034460	      3.98901744	     64.78147559	      4.71245459	     62.25936113	    128.07162758	     96.97732265	     66.63149132	      2.81952483	     59.13694003	    122.93900277	    102.65067072
      2.45000000	     -2.40400923	     -2.22342990	      1.93645528	      1.40296831	      0.91579586	     -0.11310516	     12.70192711	     -8.17723394	     -7.26083353	     16.62409059	      0.29014512	      7.32990140	      1.86318334	     -7.49999987	      5.76071044	    -12.72019837	    -13.18474664	     15.65379771	      0.27321031	     16.86043444	      7.95747459	     -7.49999987	    -18.46054415	      1.74119938	      3.55904424	     63.91030436	      4.77728541	     61.97519044	    129.25453705	     96.80275681	     65.43971817	      2.75164193	     58.03531833	    122.90334013	    102.52284051
